<?xml version="1.0" encoding="UTF-8"?>
<svg xmlns="http://www.w3.org/2000/svg" xmlns:xlink="http://www.w3.org/1999/xlink" width="268pt" height="31pt" viewBox="0 0 268 31" version="1.1">
<g id="surface1">
<path style="fill:none;stroke-width:0.3985;stroke-linecap:butt;stroke-linejoin:miter;stroke:rgb(0%,0%,0%);stroke-opacity:1;stroke-miterlimit:10;" d="M 0.000418272 0.00153687 L 28.345523 0.00153687 Z M 28.345523 0.00153687 L 28.345523 28.348626 L 56.694535 28.348626 L 56.694535 0.00153687 Z M 28.345523 0.00153687 " transform="matrix(1.00009,0,0,-1.00002,1.991769,29.345287)"/>
<path style="fill:none;stroke-width:0.3985;stroke-linecap:butt;stroke-linejoin:miter;stroke:rgb(0%,0%,0%);stroke-opacity:1;stroke-miterlimit:10;" d="M 28.345523 0.00153687 L 56.694535 0.00153687 Z M 56.694535 0.00153687 L 56.694535 28.348626 L 85.03964 28.348626 L 85.03964 0.00153687 Z M 56.694535 0.00153687 " transform="matrix(1.00009,0,0,-1.00002,1.991769,29.345287)"/>
<path style="fill:none;stroke-width:0.79701;stroke-linecap:butt;stroke-linejoin:miter;stroke:rgb(0%,0%,0%);stroke-opacity:1;stroke-miterlimit:10;" d="M 0.000418272 0.00153687 L 0.000418272 28.348626 L 85.03964 28.348626 L 85.03964 0.00153687 Z M 0.000418272 0.00153687 " transform="matrix(1.00009,0,0,-1.00002,1.991769,29.345287)"/>
<path style="fill:none;stroke-width:0.3985;stroke-linecap:butt;stroke-linejoin:miter;stroke:rgb(0%,0%,0%);stroke-opacity:1;stroke-miterlimit:10;" d="M 0.000529702 0.00153687 L 28.345635 0.00153687 Z M 28.345635 0.00153687 L 28.345635 28.348626 L 56.694646 28.348626 L 56.694646 0.00153687 Z M 28.345635 0.00153687 " transform="matrix(1.00009,0,0,-1.00002,91.733845,29.345287)"/>
<path style="fill:none;stroke-width:0.3985;stroke-linecap:butt;stroke-linejoin:miter;stroke:rgb(0%,0%,0%);stroke-opacity:1;stroke-miterlimit:10;" d="M 28.345635 0.00153687 L 56.694646 0.00153687 Z M 56.694646 0.00153687 L 56.694646 28.348626 L 85.039751 28.348626 L 85.039751 0.00153687 Z M 56.694646 0.00153687 " transform="matrix(1.00009,0,0,-1.00002,91.733845,29.345287)"/>
<path style="fill-rule:nonzero;fill:rgb(84.999084%,84.999084%,84.999084%);fill-opacity:1;stroke-width:0.79701;stroke-linecap:butt;stroke-linejoin:miter;stroke:rgb(0%,0%,0%);stroke-opacity:1;stroke-miterlimit:10;" d="M 0.000529702 0.00153687 L 0.000529702 28.348626 L 56.694646 28.348626 L 56.694646 0.00153687 Z M 0.000529702 0.00153687 " transform="matrix(1.00009,0,0,-1.00002,91.733845,29.345287)"/>
<path style="fill:none;stroke-width:0.79701;stroke-linecap:butt;stroke-linejoin:miter;stroke:rgb(0%,0%,0%);stroke-opacity:1;stroke-miterlimit:10;" d="M 0.000529702 0.00153687 L 0.000529702 28.348626 L 85.039751 28.348626 L 85.039751 0.00153687 Z M 0.000529702 0.00153687 " transform="matrix(1.00009,0,0,-1.00002,91.733845,29.345287)"/>
<path style="fill:none;stroke-width:0.3985;stroke-linecap:butt;stroke-linejoin:miter;stroke:rgb(0%,0%,0%);stroke-opacity:1;stroke-miterlimit:10;" d="M 0.00164113 0.00153687 L 28.346746 0.00153687 Z M 28.346746 0.00153687 L 28.346746 28.348626 L 56.691852 28.348626 L 56.691852 0.00153687 Z M 28.346746 0.00153687 " transform="matrix(1.00009,0,0,-1.00002,181.474921,29.345287)"/>
<path style="fill:none;stroke-width:0.3985;stroke-linecap:butt;stroke-linejoin:miter;stroke:rgb(0%,0%,0%);stroke-opacity:1;stroke-miterlimit:10;" d="M 28.346746 0.00153687 L 56.691852 0.00153687 Z M 56.691852 0.00153687 L 56.691852 28.348626 L 85.040863 28.348626 L 85.040863 0.00153687 Z M 56.691852 0.00153687 " transform="matrix(1.00009,0,0,-1.00002,181.474921,29.345287)"/>
<path style="fill-rule:nonzero;fill:rgb(84.999084%,84.999084%,84.999084%);fill-opacity:1;stroke-width:0.79701;stroke-linecap:butt;stroke-linejoin:miter;stroke:rgb(0%,0%,0%);stroke-opacity:1;stroke-miterlimit:10;" d="M 28.346746 0.00153687 L 28.346746 28.348626 L 85.040863 28.348626 L 85.040863 0.00153687 Z M 28.346746 0.00153687 " transform="matrix(1.00009,0,0,-1.00002,181.474921,29.345287)"/>
<path style="fill:none;stroke-width:0.79701;stroke-linecap:butt;stroke-linejoin:miter;stroke:rgb(0%,0%,0%);stroke-opacity:1;stroke-miterlimit:10;" d="M 0.00164113 0.00153687 L 0.00164113 28.348626 L 85.040863 28.348626 L 85.040863 0.00153687 Z M 0.00164113 0.00153687 " transform="matrix(1.00009,0,0,-1.00002,181.474921,29.345287)"/>
</g>
</svg>
