<?xml version="1.0" encoding="UTF-8"?>
<svg xmlns="http://www.w3.org/2000/svg" xmlns:xlink="http://www.w3.org/1999/xlink" width="117pt" height="201pt" viewBox="0 0 117 201" version="1.1">
<g id="surface1">
<path style="fill:none;stroke-width:0.3985;stroke-linecap:butt;stroke-linejoin:miter;stroke:rgb(0%,0%,0%);stroke-opacity:1;stroke-miterlimit:10;" d="M 0.000597752 0.00125 L 28.347404 0.00125 Z M 28.347404 0.00125 L 28.347404 28.345 L 56.694209 28.345 L 56.694209 0.00125 Z M 28.347404 0.00125 " transform="matrix(1.00003,0,0,-1,1.99159,29.345)"/>
<path style="fill:none;stroke-width:0.3985;stroke-linecap:butt;stroke-linejoin:miter;stroke:rgb(0%,0%,0%);stroke-opacity:1;stroke-miterlimit:10;" d="M 56.694209 0.00125 L 85.041015 0.00125 Z M 85.041015 0.00125 L 85.041015 28.345 L 113.387821 28.345 L 113.387821 0.00125 Z M 85.041015 0.00125 " transform="matrix(1.00003,0,0,-1,1.99159,29.345)"/>
<path style="fill:none;stroke-width:0.79701;stroke-linecap:butt;stroke-linejoin:miter;stroke:rgb(0%,0%,0%);stroke-opacity:1;stroke-miterlimit:10;" d="M 0.000597752 0.00125 L 0.000597752 28.345 L 113.387821 28.345 L 113.387821 0.00125 Z M 0.000597752 0.00125 " transform="matrix(1.00003,0,0,-1,1.99159,29.345)"/>
<path style="fill:none;stroke-width:0.3985;stroke-linecap:butt;stroke-linejoin:miter;stroke:rgb(0%,0%,0%);stroke-opacity:1;stroke-miterlimit:10;" d="M 0.000597752 -42.518281 L 28.347404 -42.518281 Z M 28.347404 -42.518281 L 28.347404 -14.174531 L 56.694209 -14.174531 L 56.694209 -42.518281 Z M 28.347404 -42.518281 " transform="matrix(1.00003,0,0,-1,1.99159,29.345)"/>
<path style="fill:none;stroke-width:0.3985;stroke-linecap:butt;stroke-linejoin:miter;stroke:rgb(0%,0%,0%);stroke-opacity:1;stroke-miterlimit:10;" d="M 56.694209 -42.518281 L 85.041015 -42.518281 Z M 85.041015 -42.518281 L 85.041015 -14.174531 L 113.387821 -14.174531 L 113.387821 -42.518281 Z M 85.041015 -42.518281 " transform="matrix(1.00003,0,0,-1,1.99159,29.345)"/>
<path style="fill-rule:nonzero;fill:rgb(84.999084%,84.999084%,84.999084%);fill-opacity:1;stroke-width:0.79701;stroke-linecap:butt;stroke-linejoin:miter;stroke:rgb(0%,0%,0%);stroke-opacity:1;stroke-miterlimit:10;" d="M 0.000597752 -42.518281 L 0.000597752 -14.174531 L 56.694209 -14.174531 L 56.694209 -42.518281 Z M 0.000597752 -42.518281 " transform="matrix(1.00003,0,0,-1,1.99159,29.345)"/>
<path style="fill:none;stroke-width:0.79701;stroke-linecap:butt;stroke-linejoin:miter;stroke:rgb(0%,0%,0%);stroke-opacity:1;stroke-miterlimit:10;" d="M 0.000597752 -42.518281 L 0.000597752 -14.174531 L 113.387821 -14.174531 L 113.387821 -42.518281 Z M 0.000597752 -42.518281 " transform="matrix(1.00003,0,0,-1,1.99159,29.345)"/>
<path style="fill:none;stroke-width:0.3985;stroke-linecap:butt;stroke-linejoin:miter;stroke:rgb(0%,0%,0%);stroke-opacity:1;stroke-miterlimit:10;" d="M 0.000597752 -85.041719 L 0.000597752 -56.694063 L 28.347404 -56.694063 L 28.347404 -85.041719 Z M 28.347404 -56.694063 L 56.694209 -56.694063 Z M 28.347404 -56.694063 " transform="matrix(1.00003,0,0,-1,1.99159,29.345)"/>
<path style="fill:none;stroke-width:0.3985;stroke-linecap:butt;stroke-linejoin:miter;stroke:rgb(0%,0%,0%);stroke-opacity:1;stroke-miterlimit:10;" d="M 56.694209 -85.041719 L 56.694209 -56.694063 L 85.041015 -56.694063 L 85.041015 -85.041719 Z M 85.041015 -56.694063 L 113.387821 -56.694063 Z M 85.041015 -56.694063 " transform="matrix(1.00003,0,0,-1,1.99159,29.345)"/>
<path style="fill-rule:nonzero;fill:rgb(84.999084%,84.999084%,84.999084%);fill-opacity:1;stroke-width:0.79701;stroke-linecap:butt;stroke-linejoin:miter;stroke:rgb(0%,0%,0%);stroke-opacity:1;stroke-miterlimit:10;" d="M 28.347404 -85.041719 L 28.347404 -56.694063 L 85.041015 -56.694063 L 85.041015 -85.041719 Z M 28.347404 -85.041719 " transform="matrix(1.00003,0,0,-1,1.99159,29.345)"/>
<path style="fill:none;stroke-width:0.79701;stroke-linecap:butt;stroke-linejoin:miter;stroke:rgb(0%,0%,0%);stroke-opacity:1;stroke-miterlimit:10;" d="M 0.000597752 -85.041719 L 0.000597752 -56.694063 L 113.387821 -56.694063 L 113.387821 -85.041719 Z M 0.000597752 -85.041719 " transform="matrix(1.00003,0,0,-1,1.99159,29.345)"/>
<path style="fill:none;stroke-width:0.3985;stroke-linecap:butt;stroke-linejoin:miter;stroke:rgb(0%,0%,0%);stroke-opacity:1;stroke-miterlimit:10;" d="M 0.000597752 -127.56125 L 28.347404 -127.56125 Z M 28.347404 -127.56125 L 28.347404 -99.213594 L 56.694209 -99.213594 L 56.694209 -127.56125 Z M 28.347404 -127.56125 " transform="matrix(1.00003,0,0,-1,1.99159,29.345)"/>
<path style="fill:none;stroke-width:0.3985;stroke-linecap:butt;stroke-linejoin:miter;stroke:rgb(0%,0%,0%);stroke-opacity:1;stroke-miterlimit:10;" d="M 56.694209 -127.56125 L 85.041015 -127.56125 Z M 85.041015 -127.56125 L 85.041015 -99.213594 L 113.387821 -99.213594 L 113.387821 -127.56125 Z M 85.041015 -127.56125 " transform="matrix(1.00003,0,0,-1,1.99159,29.345)"/>
<path style="fill-rule:nonzero;fill:rgb(84.999084%,84.999084%,84.999084%);fill-opacity:1;stroke-width:0.79701;stroke-linecap:butt;stroke-linejoin:miter;stroke:rgb(0%,0%,0%);stroke-opacity:1;stroke-miterlimit:10;" d="M 56.694209 -127.56125 L 56.694209 -99.213594 L 113.387821 -99.213594 L 113.387821 -127.56125 Z M 56.694209 -127.56125 " transform="matrix(1.00003,0,0,-1,1.99159,29.345)"/>
<path style="fill:none;stroke-width:0.79701;stroke-linecap:butt;stroke-linejoin:miter;stroke:rgb(0%,0%,0%);stroke-opacity:1;stroke-miterlimit:10;" d="M 0.000597752 -127.56125 L 0.000597752 -99.213594 L 113.387821 -99.213594 L 113.387821 -127.56125 Z M 0.000597752 -127.56125 " transform="matrix(1.00003,0,0,-1,1.99159,29.345)"/>
<path style="fill:none;stroke-width:0.3985;stroke-linecap:butt;stroke-linejoin:miter;stroke:rgb(0%,0%,0%);stroke-opacity:1;stroke-miterlimit:10;" d="M 0.000597752 -170.080781 L 28.347404 -170.080781 Z M 28.347404 -170.080781 L 28.347404 -141.733125 L 56.694209 -141.733125 L 56.694209 -170.080781 Z M 28.347404 -170.080781 " transform="matrix(1.00003,0,0,-1,1.99159,29.345)"/>
<path style="fill:none;stroke-width:0.3985;stroke-linecap:butt;stroke-linejoin:miter;stroke:rgb(0%,0%,0%);stroke-opacity:1;stroke-miterlimit:10;" d="M 56.694209 -170.080781 L 85.041015 -170.080781 Z M 85.041015 -170.080781 L 85.041015 -141.733125 L 113.387821 -141.733125 L 113.387821 -170.080781 Z M 85.041015 -170.080781 " transform="matrix(1.00003,0,0,-1,1.99159,29.345)"/>
<path style="fill-rule:nonzero;fill:rgb(84.999084%,84.999084%,84.999084%);fill-opacity:1;stroke-width:0.79701;stroke-linecap:butt;stroke-linejoin:miter;stroke:rgb(0%,0%,0%);stroke-opacity:1;stroke-miterlimit:10;" d="M 0.000597752 -170.080781 L 0.000597752 -141.733125 L 56.694209 -141.733125 L 56.694209 -170.080781 Z M 0.000597752 -170.080781 " transform="matrix(1.00003,0,0,-1,1.99159,29.345)"/>
<path style="fill-rule:nonzero;fill:rgb(84.999084%,84.999084%,84.999084%);fill-opacity:1;stroke-width:0.79701;stroke-linecap:butt;stroke-linejoin:miter;stroke:rgb(0%,0%,0%);stroke-opacity:1;stroke-miterlimit:10;" d="M 56.694209 -170.080781 L 56.694209 -141.733125 L 113.387821 -141.733125 L 113.387821 -170.080781 Z M 56.694209 -170.080781 " transform="matrix(1.00003,0,0,-1,1.99159,29.345)"/>
<path style="fill:none;stroke-width:0.79701;stroke-linecap:butt;stroke-linejoin:miter;stroke:rgb(0%,0%,0%);stroke-opacity:1;stroke-miterlimit:10;" d="M 0.000597752 -170.080781 L 0.000597752 -141.733125 L 113.387821 -141.733125 L 113.387821 -170.080781 Z M 0.000597752 -170.080781 " transform="matrix(1.00003,0,0,-1,1.99159,29.345)"/>
</g>
</svg>
